<svg version="1.1" id="Layer_1" xmlns="http://www.w3.org/2000/svg" xmlns:xlink="http://www.w3.org/1999/xlink" x="0px" y="0px"
	 width="100%" viewBox="0 0 1024 1024" enable-background="new 0 0 1024 1024" xml:space="preserve">
<path fill="#000000" opacity="1.000000" stroke="none" 
	d="
M456.148621,475.719513 
	C456.288727,466.266907 456.325043,457.269958 456.686737,448.286072 
	C456.878052,443.534454 455.047943,441.651062 450.270416,441.842560 
	C437.454590,442.356323 424.630859,442.835968 411.806915,442.948029 
	C386.600525,443.168304 367.825989,431.739471 357.555908,409.052246 
	C342.364899,375.494415 360.949036,329.246704 407.878876,326.875031 
	C422.009430,326.160950 436.207916,326.589142 450.370117,326.817261 
	C455.189331,326.894867 456.812347,325.215271 456.738464,320.439667 
	C456.519287,306.277130 456.416992,292.103699 456.719635,277.944153 
	C457.349670,248.464340 481.357849,221.047256 514.238464,220.416992 
	C545.138062,219.824707 570.912109,242.820541 575.012268,272.186646 
	C575.287292,274.156494 575.303406,276.173431 575.306274,278.168671 
	C575.326721,292.667969 575.452820,307.169556 575.226562,321.665405 
	C575.156677,326.144562 576.378296,327.919830 581.132629,327.731995 
	C595.109680,327.179871 609.107300,327.167480 623.087463,326.676178 
	C651.421997,325.680450 679.705688,350.332275 680.717224,382.428101 
	C681.611206,410.797485 661.387573,442.093323 624.138550,442.330566 
	C609.654480,442.422821 595.141846,442.931885 580.674683,441.570129 
	C576.247192,441.153351 575.340149,443.803314 575.318848,447.476501 
	C575.249268,459.475037 575.027222,471.472870 574.981384,483.471405 
	C574.874878,511.333099 553.919617,537.529907 527.487183,542.750000 
	C491.481018,549.860840 457.175751,521.959595 456.643341,485.157867 
	C456.600037,482.163849 456.339569,479.172943 456.148621,475.719513 
M545.031921,450.590576 
	C545.010193,439.770172 545.217102,428.942322 544.863708,418.132751 
	C544.703613,413.236633 546.321838,411.658752 551.125061,411.956818 
	C571.431274,413.216766 591.768799,412.406219 612.092529,412.599335 
	C621.365417,412.687469 630.112244,411.782867 635.192993,402.385010 
	C635.726318,401.398529 636.796875,400.706543 637.601624,399.862091 
	C648.202576,388.738678 646.030579,373.198792 633.222717,367.229797 
	C631.424011,366.391541 630.506531,364.928986 629.761353,363.176758 
	C626.407349,355.289764 626.378357,355.425385 617.589355,355.351624 
	C595.592041,355.167053 573.604248,355.586090 551.614990,356.073547 
	C545.143616,356.217010 544.530701,355.661224 544.965027,349.378662 
	C546.335327,329.555725 544.211243,309.740906 544.972839,289.942657 
	C545.239624,283.008392 543.072449,278.565155 536.806213,275.675049 
	C531.365173,273.165588 528.875916,268.103851 526.333069,262.479401 
	C531.167542,260.709351 535.520569,259.141724 539.852051,257.516357 
	C541.502991,256.896820 543.858643,256.926819 544.198486,254.731491 
	C544.520752,252.649567 542.560364,251.584946 541.117432,250.528015 
	C527.945251,240.879272 513.733887,239.498779 499.200531,246.558685 
	C484.844025,253.532715 479.232758,266.331329 478.238708,281.580780 
	C478.177521,282.519287 477.576508,283.917572 479.543854,284.563934 
	C480.190460,282.221558 481.797302,280.548401 483.484406,278.943237 
	C484.343872,278.125519 485.276367,277.314209 486.568359,277.856171 
	C487.929810,278.427246 487.762268,279.616547 487.668640,280.833313 
	C486.413727,297.144958 487.400269,313.472198 487.409454,329.792145 
	C487.413391,336.774841 487.877747,343.756226 487.991394,350.740479 
	C488.038513,353.634918 487.226532,356.088409 483.540588,356.024048 
	C464.058655,355.683960 444.562347,357.081268 425.089203,355.483948 
	C416.386536,354.770081 407.849518,354.096100 402.388062,363.459747 
	C400.735840,366.292450 397.068939,367.905670 394.471832,370.240936 
	C389.172150,375.006287 387.451813,382.690247 389.998688,389.400940 
	C391.829651,394.225250 394.959930,398.042603 399.050903,401.097565 
	C401.191345,402.695923 403.499329,404.151245 404.931976,406.449829 
	C408.026031,411.414001 412.546844,412.555817 418.139954,412.726013 
	C439.149841,413.365387 460.107483,411.396393 481.102234,411.804504 
	C487.307037,411.925110 488.192535,412.849945 487.814606,418.773834 
	C486.497192,439.422852 487.556366,460.088440 487.393860,480.745392 
	C487.348572,486.501740 490.677704,490.755066 494.691589,494.434601 
	C496.543274,496.131989 499.005524,496.409271 501.282867,495.501343 
	C503.753754,494.516205 502.858917,492.100677 502.869415,490.218658 
	C502.886139,487.222565 502.896790,484.199371 502.538422,481.232513 
	C499.348206,454.821350 500.616730,428.342346 501.391907,401.881775 
	C501.493744,398.406250 500.437439,396.835938 497.269043,396.460602 
	C495.456329,396.245880 493.608307,396.218536 491.779968,396.262787 
	C467.140167,396.859589 442.502808,397.204193 417.857849,396.394684 
	C410.793945,396.162659 405.266235,393.488617 401.647827,387.396790 
	C399.792145,384.272644 398.822815,380.779144 401.328491,377.547241 
	C404.869659,372.979675 408.834076,369.453888 415.420441,369.606964 
	C441.237793,370.206818 467.074188,369.387207 492.889923,370.573395 
	C500.184479,370.908569 500.962219,369.914948 500.947845,362.734680 
	C500.901154,339.405060 500.914093,316.075317 500.901093,292.745636 
	C500.899445,289.800568 501.211212,286.937042 502.924255,283.260376 
	C511.761627,293.335480 520.298096,292.053253 528.068665,283.411926 
	C530.288330,284.554932 530.212708,286.143768 530.288208,287.604279 
	C530.554688,292.759369 530.914917,297.915955 530.965942,303.074677 
	C531.142517,320.905304 531.230225,338.737030 531.280640,356.568512 
	C531.288269,359.281891 531.861511,361.842560 532.546814,364.421783 
	C533.530151,368.123260 535.615051,369.869781 539.717224,369.781860 
	C549.211304,369.578430 558.714111,369.796692 568.213440,369.820740 
	C586.034912,369.865814 603.862366,369.237305 621.669373,370.621796 
	C628.091797,371.121124 632.947815,374.260406 634.767822,379.678864 
	C636.438538,384.652893 634.705566,390.218536 630.238525,394.030975 
	C626.673767,397.073456 622.345825,397.261566 617.959595,397.217712 
	C591.634766,396.954529 565.303955,397.338898 538.984680,396.386047 
	C531.692932,396.122040 531.063416,396.789185 531.036133,404.277863 
	C530.969421,422.608948 531.107361,440.941101 530.973328,459.271454 
	C530.917358,466.924042 529.948914,474.568085 530.602051,482.233093 
	C531.663818,494.693817 530.978271,495.945587 519.776855,501.643890 
	C519.650330,501.708282 519.724243,502.166809 519.698486,502.527161 
	C522.215088,502.952087 524.313049,501.776886 526.137329,500.433014 
	C529.345215,498.069885 532.878174,496.635834 536.603638,495.302948 
	C543.885681,492.697571 544.926453,490.937378 544.974426,483.065155 
	C545.038391,472.566162 545.013611,462.066650 545.031921,450.590576 
z"/>
<path fill="#000000" opacity="1.000000" stroke="none" 
	d="
M148.234955,571.632568 
	C151.022324,571.614685 153.359253,571.687927 155.684601,571.556152 
	C163.317200,571.123962 163.326294,571.095337 163.322052,578.924500 
	C163.316116,589.919006 163.385880,600.914978 163.219086,611.907227 
	C163.169098,615.200378 163.902451,616.902588 167.616333,616.665527 
	C179.087326,615.933228 190.571472,615.580078 202.053665,616.512207 
	C205.567535,616.797424 205.657928,614.489502 205.652847,611.974121 
	C205.629593,600.479980 205.641251,588.985779 205.640411,577.491638 
	C205.640274,575.702759 205.640396,573.913940 205.640396,571.732666 
	C213.004288,571.732666 219.960648,571.751648 226.916824,571.722961 
	C229.592514,571.711914 230.226654,573.212280 230.225906,575.575684 
	C230.215057,609.891724 230.222916,644.207886 230.308929,678.523743 
	C230.316467,681.533081 229.337173,682.591980 226.242935,682.519226 
	C220.924683,682.394104 215.593185,682.676575 210.271790,682.897766 
	C206.845688,683.040100 205.606689,681.556152 205.625183,678.135437 
	C205.687210,666.656555 204.970840,655.172913 205.704025,643.698608 
	C205.963348,639.640015 204.490219,638.127075 200.268356,638.182129 
	C189.114471,638.327637 177.950806,638.184387 166.800079,637.852051 
	C163.027176,637.739563 163.300995,639.923462 163.298141,642.314697 
	C163.284424,653.809021 163.153000,665.304993 163.319595,676.796692 
	C163.377609,680.799133 162.194977,682.645691 157.924698,682.356934 
	C153.779297,682.076477 149.580536,682.055054 145.440292,682.374695 
	C141.094498,682.710083 139.541473,681.179871 139.638168,676.754822 
	C139.900146,664.765991 139.809677,652.768799 139.809769,640.774963 
	C139.809937,620.285767 139.797226,599.796570 139.738556,579.307495 
	C139.715714,571.329712 139.652344,571.329895 148.234955,571.632568 
z"/>
<path fill="#000000" opacity="1.000000" stroke="none" 
	d="
M630.000000,659.763062 
	C637.999573,659.770264 645.500916,659.876343 652.997864,659.740356 
	C656.251709,659.681396 657.436707,660.949524 657.350525,664.156677 
	C657.194275,669.969116 657.306213,675.788696 657.306213,681.154724 
	C655.995850,682.597229 654.795227,682.402710 653.641296,682.401611 
	C630.642822,682.380127 607.643616,682.259949 584.646484,682.424194 
	C580.215149,682.455811 578.526733,681.357971 578.555176,676.608704 
	C578.753906,643.446350 578.748352,610.282227 578.633850,577.119263 
	C578.619934,573.099854 579.656189,571.523987 583.913879,571.568726 
	C605.077454,571.791321 626.243713,571.751099 647.408997,571.830444 
	C648.902588,571.836060 650.394531,572.071594 651.888733,572.179382 
	C654.950867,572.400269 656.393982,573.817566 655.837646,577.061096 
	C655.184631,580.867737 655.435852,584.684570 655.944580,588.510071 
	C656.434570,592.194397 654.921082,594.096985 650.928406,594.056091 
	C637.099487,593.914307 623.267151,594.037170 609.439819,593.821106 
	C603.223877,593.723938 602.385315,594.227722 602.347900,600.283875 
	C602.324219,604.116882 602.464233,607.958801 602.245972,611.780457 
	C602.032959,615.511475 603.614624,616.743469 607.236389,616.712036 
	C620.567810,616.596191 633.903564,616.842041 647.232117,616.619080 
	C651.784058,616.543030 653.621948,617.907349 653.146606,622.605042 
	C652.617432,627.834656 653.736877,633.176880 652.654358,638.376160 
	C638.089050,638.376160 623.955444,638.360779 609.821899,638.383118 
	C603.427368,638.393188 602.542175,639.266296 602.344666,645.463013 
	C601.890137,659.721924 601.890137,659.722229 616.000549,659.745361 
	C620.500366,659.752747 625.000183,659.757751 630.000000,659.763062 
z"/>
<path fill="#000000" opacity="1.000000" stroke="none" 
	d="
M424.534363,707.356995 
	C419.206787,707.325500 413.868561,707.073120 408.554932,707.329956 
	C404.014526,707.549438 402.529480,705.907410 402.567383,701.302307 
	C402.818237,670.828369 402.794769,640.352356 402.902252,609.877136 
	C402.944580,597.882446 402.993286,597.882874 415.057861,597.828613 
	C415.723969,597.825623 416.390015,597.814758 417.056091,597.806152 
	C424.754028,597.706482 424.745026,597.706116 424.480042,605.398926 
	C424.464569,605.848328 424.780029,606.309143 424.926910,606.723511 
	C426.613098,607.379639 427.447845,606.165588 428.444458,605.344177 
	C441.475555,594.603455 459.039825,595.157593 471.628387,606.705811 
	C485.606201,619.528503 489.479034,638.205627 481.658112,656.014160 
	C475.472809,670.098328 465.611053,679.975769 449.827515,682.589478 
	C442.497192,683.803345 436.059082,681.424377 430.129913,677.232971 
	C428.546051,676.113342 427.331238,674.364441 425.351074,674.085266 
	C425.351074,684.666199 425.351074,695.200195 425.144958,706.362854 
	C424.804016,707.113403 424.669189,707.235229 424.534363,707.356995 
M442.611755,661.552856 
	C452.153656,661.153992 457.390167,655.554077 460.011505,646.963562 
	C461.293396,642.762695 461.215302,638.388672 460.760834,634.077209 
	C459.951538,626.399170 454.584564,620.497314 447.045563,618.699890 
	C440.580963,617.158569 431.017853,620.738770 428.079956,626.964783 
	C422.135468,639.562439 422.880890,658.072266 442.611755,661.552856 
z"/>
<path fill="#000000" opacity="1.000000" stroke="none" 
	d="
M685.161133,631.806152 
	C694.659058,629.606873 703.879089,629.613647 713.111877,630.771057 
	C713.202087,622.980347 708.162903,617.807373 700.590210,617.388306 
	C691.383301,616.878967 682.806396,618.808411 675.154053,625.050415 
	C671.769897,618.989685 669.085693,612.922913 664.750793,607.014954 
	C672.048096,603.846863 678.833069,600.985657 686.087891,599.305847 
	C694.923462,597.260071 703.742188,596.336243 712.721619,598.642212 
	C726.158386,602.092712 735.019836,612.966858 735.337280,626.800598 
	C735.684509,641.935669 735.984009,657.071777 736.303833,672.207458 
	C736.314392,672.706787 736.307678,673.206726 736.329712,673.705505 
	C736.707214,682.249756 736.707947,682.249573 727.738892,682.325928 
	C727.239502,682.330200 726.739990,682.331848 726.240723,682.342346 
	C717.587280,682.523315 717.587280,682.523682 714.961731,674.097473 
	C713.013245,673.913086 712.248169,675.672729 711.070984,676.637756 
	C700.619263,685.205017 681.321655,686.020691 671.849182,678.106689 
	C663.178101,670.862366 660.641174,661.351929 662.929810,650.667603 
	C664.988342,641.057312 672.211914,636.100708 680.892395,632.911987 
	C682.135498,632.455383 683.460022,632.220093 685.161133,631.806152 
M705.225403,646.408325 
	C700.571777,646.436584 695.928467,646.764343 691.577942,648.506897 
	C687.458801,650.156738 685.224182,653.559631 685.552979,657.877075 
	C685.888428,662.281494 689.699219,663.831238 693.359924,664.309875 
	C699.331848,665.090759 704.968628,663.689331 709.390137,659.314453 
	C712.125183,656.608276 713.429810,653.027527 712.410767,649.279846 
	C711.602539,646.307434 708.395325,646.985718 705.225403,646.408325 
z"/>
<path fill="#000000" opacity="1.000000" stroke="none" 
	d="
M891.275696,633.321167 
	C891.140869,638.890198 891.905823,644.031433 890.827637,649.697327 
	C881.744141,648.474060 872.840088,648.571716 863.901245,648.987061 
	C854.985474,649.401306 846.035461,649.077881 837.052246,649.077881 
	C838.310669,665.164185 858.822510,667.795166 878.671631,654.935303 
	C881.241028,660.992310 885.919495,665.455750 890.435547,670.036377 
	C872.762268,684.448486 853.791321,688.001526 833.625549,678.068970 
	C820.745056,671.724609 814.843262,660.718994 813.047119,647.050720 
	C811.001038,631.480225 813.877380,617.136169 826.405762,606.748413 
	C851.778687,585.710693 885.287903,599.389709 891.275696,633.321167 
M866.841919,624.750305 
	C861.942871,618.211670 855.523804,615.700073 847.615112,617.954407 
	C840.837036,619.886597 836.744385,625.094116 836.152588,632.165710 
	C847.130005,632.165710 858.080139,632.165710 869.095886,632.165710 
	C869.408875,629.421936 868.429382,627.356445 866.841919,624.750305 
z"/>
<path fill="#000000" opacity="1.000000" stroke="none" 
	d="
M305.860596,674.933655 
	C290.332458,685.911133 274.446411,686.459106 258.720123,676.895569 
	C243.100693,667.397095 237.132492,652.589600 238.527008,634.736694 
	C240.498047,609.503052 260.966858,596.145447 284.984558,597.941650 
	C309.327301,599.762268 326.128815,618.316833 325.248535,641.618530 
	C324.709625,655.884094 316.688690,666.089111 305.860596,674.933655 
M270.665222,658.966553 
	C284.152496,665.529907 296.385101,659.799194 300.186584,645.136414 
	C302.851166,634.858826 298.384338,624.582153 289.378113,620.269714 
	C280.757080,616.141724 271.441162,618.578735 265.504608,626.514954 
	C258.144257,636.354675 260.167358,650.665405 270.665222,658.966553 
z"/>
<path fill="#000000" opacity="1.000000" stroke="none" 
	d="
M747.403870,612.690063 
	C754.634033,601.436340 765.615234,598.012817 777.612793,597.269470 
	C788.525635,596.593262 798.695740,599.697754 808.030518,605.407593 
	C808.708862,605.822510 809.262207,606.441895 810.057922,607.124268 
	C806.631897,612.785583 801.679749,617.222717 799.585876,623.923035 
	C792.792542,620.008057 786.157959,617.113464 778.631592,617.193909 
	C774.429993,617.238831 769.298035,616.842468 768.440552,622.026367 
	C767.602173,627.094666 772.747620,628.131775 776.433838,629.370911 
	C782.104919,631.277344 788.049744,632.305786 793.594421,634.672180 
	C802.284363,638.381104 809.354248,643.422058 810.301147,653.876099 
	C811.325134,665.181702 805.886719,673.024902 796.840332,678.797729 
	C787.061401,685.037903 776.271973,684.700806 765.426086,682.924805 
	C757.624146,681.647278 750.529053,678.261902 743.474365,674.833496 
	C739.470947,672.887939 739.238037,670.805786 742.629944,667.875977 
	C746.449646,664.576782 748.403198,659.799133 751.570068,655.615051 
	C759.176147,660.474487 767.379883,663.375488 776.346680,663.814026 
	C778.165222,663.903015 780.046631,663.907532 781.815430,663.544189 
	C784.815674,662.927734 787.112488,661.089233 787.445801,657.952881 
	C787.774170,654.864014 785.205322,653.878052 782.796936,652.923340 
	C775.817871,650.156433 768.296570,649.254333 761.316833,646.417786 
	C746.217102,640.281311 740.976501,628.099854 747.403870,612.690063 
z"/>
<path fill="#000000" opacity="1.000000" stroke="none" 
	d="
M332.326233,661.365845 
	C333.644287,659.244812 334.762695,657.420288 336.199310,655.076599 
	C342.965271,659.915955 350.382355,662.565125 358.236816,664.149597 
	C361.272522,664.761963 364.160278,664.802734 367.051117,663.661316 
	C369.687347,662.620483 371.763000,661.121399 371.851562,657.960327 
	C371.943420,654.680786 369.811371,653.221802 367.088440,652.377930 
	C359.941986,650.163147 352.808105,647.898621 345.612183,645.854675 
	C335.308380,642.927917 331.061188,635.177917 329.870056,625.515747 
	C328.596863,615.187683 333.026520,607.052307 342.160431,602.367920 
	C355.501312,595.526001 369.485443,596.250000 383.385437,600.848511 
	C387.457825,602.195740 391.448425,603.906799 395.527618,607.146851 
	C391.680725,612.336060 386.774689,616.732483 384.734711,623.499329 
	C378.413727,619.206543 371.833893,617.674927 365.070343,616.737671 
	C364.083954,616.601013 363.086182,616.395020 362.100830,616.429016 
	C358.138153,616.565735 353.705444,617.101379 352.773865,621.481140 
	C351.772766,626.187744 356.437927,627.236267 359.733917,628.495422 
	C366.256012,630.987061 373.232666,632.018005 379.710297,634.786926 
	C398.647400,642.881775 401.694489,661.753784 386.195679,675.381409 
	C376.081665,684.274414 364.009552,684.346863 351.736206,682.959778 
	C343.139160,681.988098 335.642273,677.792419 328.155273,673.745178 
	C325.599976,672.363892 325.425079,670.758423 327.158630,668.549255 
	C328.904602,666.324280 330.477722,663.963623 332.326233,661.365845 
z"/>
<path fill="#000000" opacity="1.000000" stroke="none" 
	d="
M523.534058,607.404297 
	C523.302429,605.634888 523.107788,604.317200 522.895569,603.002258 
	C522.408203,599.982605 523.697083,598.479248 526.730530,598.844299 
	C531.806091,599.455078 532.985535,596.926758 532.739075,592.380981 
	C532.434631,586.766296 532.666260,581.122437 532.666260,575.274353 
	C536.224976,574.154968 539.726685,574.893005 543.155457,574.761719 
	C546.608276,574.629395 550.070129,574.732605 553.921509,574.732605 
	C554.519165,580.919617 555.280334,587.159485 554.943604,593.448547 
	C554.723145,597.566772 556.345154,599.177490 560.476624,598.911987 
	C563.954590,598.688538 567.466797,598.973877 570.963013,599.067261 
	C574.028320,599.149170 575.710571,600.424805 574.900513,603.775818 
	C574.066833,607.224426 574.260315,610.747314 574.399048,614.226196 
	C574.543091,617.839722 573.568054,619.438049 569.550476,618.763977 
	C566.299133,618.218445 562.912048,618.446533 559.584229,618.402954 
	C556.733154,618.365662 555.338013,619.757263 555.352722,622.697632 
	C555.403625,632.858582 555.123352,643.028381 555.465149,653.178101 
	C555.725586,660.914124 560.742004,664.096985 568.057739,661.834351 
	C569.457153,661.401550 570.794861,660.487854 572.885071,661.496826 
	C573.268921,667.102539 573.710632,673.005920 574.057129,678.914917 
	C574.175293,680.929626 572.670471,681.284973 571.067505,681.461548 
	C566.109863,682.007751 561.167725,682.903748 556.198059,683.090393 
	C543.233582,683.577087 531.921509,672.952637 531.727173,659.952271 
	C531.560364,648.797974 531.746216,637.630493 532.101990,626.479248 
	C532.312012,619.898376 532.568848,619.882324 525.987427,619.312927 
	C525.353760,619.258118 524.734558,619.036194 523.563110,618.766113 
	C523.563110,615.115417 523.563110,611.486328 523.534058,607.404297 
z"/>
<path fill="#000000" opacity="1.000000" stroke="none" 
	d="
M802.055786,302.621277 
	C795.532593,319.289001 777.758301,322.111816 766.576111,308.623718 
	C763.980469,305.492798 762.213501,301.871429 756.778381,305.782410 
	C753.987976,307.790314 749.041748,307.081146 745.065613,307.114746 
	C726.079529,307.275024 707.087585,307.029114 688.106323,307.386871 
	C667.475586,307.775604 646.916138,309.266296 626.396057,311.709290 
	C613.735291,313.216614 600.917480,313.851532 588.341492,313.118469 
	C587.939331,312.476715 587.647400,312.217224 587.613953,311.927826 
	C586.426270,301.654419 586.430054,301.600677 596.763123,301.661804 
	C619.931519,301.798889 642.949280,298.959351 666.079102,298.249054 
	C695.219727,297.354156 724.350830,297.273743 753.472290,298.578857 
	C761.261780,298.927948 761.245117,299.300720 762.793518,291.774567 
	C764.765259,282.190735 775.421692,273.691803 784.038635,274.830780 
	C794.953491,276.273499 803.208496,286.409576 802.678894,297.769257 
	C802.609253,299.262360 802.337158,300.746033 802.055786,302.621277 
M791.555054,298.030090 
	C791.516113,296.876007 791.772522,295.609558 791.383972,294.588501 
	C790.129639,291.292694 787.809631,288.943726 784.210571,288.402313 
	C780.758545,287.883026 777.425659,288.451691 775.370361,291.616211 
	C773.611694,294.324005 773.777771,297.385834 775.341614,300.134155 
	C777.029541,303.100616 779.368774,305.672485 783.103882,305.558685 
	C787.433533,305.426819 789.977417,302.681488 791.555054,298.030090 
z"/>
<path fill="#000000" opacity="1.000000" stroke="none" 
	d="
M291.000061,468.008392 
	C257.697540,468.094818 224.895004,468.187408 192.092407,468.216125 
	C189.948700,468.218018 187.805328,467.724152 185.660431,467.472565 
	C183.696793,467.242188 182.781952,466.084045 182.551682,464.178070 
	C182.289780,462.010223 183.247467,460.670868 185.204834,459.943817 
	C188.060806,458.882874 191.035980,458.682068 194.053452,458.684021 
	C246.839203,458.718506 299.625397,458.616669 352.410522,458.812683 
	C380.387482,458.916565 408.249725,456.275177 436.199341,455.855499 
	C444.310791,455.733704 445.203247,456.742218 444.331360,465.023071 
	C443.955292,468.594818 441.706818,468.215546 439.363037,468.199554 
	C390.075714,467.863464 340.786407,469.029541 291.000061,468.008392 
z"/>
<path fill="#000000" opacity="1.000000" stroke="none" 
	d="
M246.957626,339.481720 
	C244.108948,338.895294 242.621704,339.815857 241.233337,341.963654 
	C234.009384,353.138947 220.935562,354.196869 212.379684,344.106842 
	C209.892868,341.174072 207.649567,340.666626 203.931000,340.813019 
	C188.956955,341.402679 173.958221,341.380402 158.968094,341.534943 
	C155.877441,341.566803 153.715149,340.151215 153.736389,336.833801 
	C153.760620,333.046082 156.196594,331.662811 159.688110,331.688019 
	C174.181000,331.792572 188.675049,331.824738 203.165863,332.058136 
	C206.454559,332.111084 208.923187,331.631134 210.426331,328.261963 
	C216.450790,314.758484 234.125198,315.399445 241.548355,327.398682 
	C243.692490,330.864624 245.827652,331.317749 249.595612,331.127075 
	C266.573303,330.268127 283.552612,331.493225 300.533997,331.760559 
	C317.510345,332.027802 334.482788,332.553925 351.455688,333.013031 
	C353.045929,333.056061 354.815491,332.565033 356.144104,333.953308 
	C355.081879,341.072418 353.630554,342.507843 347.154236,342.292816 
	C324.026550,341.525024 300.923767,339.881500 277.761871,340.341949 
	C267.619629,340.543518 257.473907,340.934021 246.957626,339.481720 
M220.561722,337.177856 
	C220.976074,337.696716 221.340027,338.267548 221.813034,338.725861 
	C224.602966,341.428894 227.733902,341.817291 230.780899,339.416809 
	C233.219147,337.495972 233.305969,334.740936 231.805466,332.211456 
	C230.266495,329.617126 227.729004,327.726379 224.759247,329.023590 
	C221.817001,330.308899 218.661285,332.232697 220.561722,337.177856 
z"/>
<path fill="#000000" opacity="1.000000" stroke="none" 
	d="
M801.992798,359.084534 
	C795.018127,358.876801 788.554810,359.006958 782.060425,358.386475 
	C773.428406,357.561707 765.040222,360.842102 756.349670,360.860992 
	C752.451050,360.869446 748.861206,361.343597 745.583130,358.503723 
	C743.345032,356.564758 740.449829,356.542236 738.301453,358.688416 
	C736.037659,360.949921 733.457397,361.198883 730.557617,361.236511 
	C719.066772,361.385620 707.596558,361.080109 696.121460,360.414276 
	C688.723083,359.985046 687.929688,359.482269 687.065186,351.534851 
	C689.505188,349.990143 692.339172,349.980652 695.113708,350.005371 
	C730.727295,350.322662 766.340637,350.662659 801.953552,351.045044 
	C809.681885,351.128021 817.108459,353.250000 824.496155,355.140656 
	C832.097717,357.085968 835.249878,365.926239 831.136108,372.254486 
	C829.356873,374.991425 827.001953,376.622742 823.639587,376.176880 
	C805.684387,373.796051 787.739502,376.860138 769.782593,376.281372 
	C765.747009,376.151306 763.516907,374.743713 762.897827,370.752289 
	C762.112000,365.685242 763.432373,363.988831 768.679321,364.036713 
	C781.993713,364.158264 795.307007,364.408112 808.621033,364.580597 
	C812.010864,364.624512 815.204773,364.166718 817.437012,360.162048 
	C812.269958,358.092041 807.271362,359.638458 801.992798,359.084534 
z"/>
<path fill="#000000" opacity="1.000000" stroke="none" 
	d="
M660.337646,445.249573 
	C666.415039,440.730194 672.647339,439.245758 680.077881,439.523102 
	C717.716370,440.927917 755.357666,437.883636 792.994751,438.964417 
	C808.308228,439.404175 823.621521,439.190247 838.925842,439.741364 
	C841.073242,439.818695 843.163818,439.813141 845.235046,438.735992 
	C849.494385,436.520905 853.622620,438.038544 855.990540,442.406525 
	C857.696472,445.553131 856.051270,449.874176 852.362122,452.179260 
	C850.772156,453.172760 849.110962,453.348938 847.661987,452.316681 
	C844.572937,450.116028 841.102722,450.223755 837.602417,450.208466 
	C818.109436,450.123322 798.605042,450.404846 779.126770,449.820831 
	C759.634521,449.236389 740.145081,449.197906 720.668518,449.523132 
	C702.681946,449.823517 684.697876,450.263123 666.707214,450.270996 
	C663.396240,450.272430 660.056946,450.282227 656.933655,448.776154 
	C656.670532,446.361237 658.887512,446.396484 660.337646,445.249573 
z"/>
<path fill="#000000" opacity="1.000000" stroke="none" 
	d="
M794.507324,340.641113 
	C789.554260,340.831360 785.061829,340.907104 780.573486,341.084839 
	C747.635803,342.389008 714.673157,342.064941 681.723572,342.586639 
	C676.816223,342.664337 675.970154,338.517487 673.965027,334.236023 
	C679.625671,333.804779 684.646912,333.140137 689.674927,333.084595 
	C724.964844,332.694946 760.241699,331.359802 795.541260,331.641876 
	C801.513367,331.689606 807.529968,332.238983 813.435974,330.678070 
	C814.368774,330.431580 815.636292,330.259857 816.385010,330.688904 
	C825.802979,336.085266 835.575623,330.883942 845.176697,331.636414 
	C855.931702,332.479309 866.807434,331.787903 877.630676,331.749481 
	C879.786682,331.741852 881.890625,331.675323 884.007385,330.901306 
	C886.972473,329.817169 889.596069,330.555359 891.351196,333.399506 
	C892.994507,336.062256 893.226685,338.634033 891.051514,341.211548 
	C888.792236,343.888702 886.098999,344.663574 883.089905,342.900330 
	C880.479614,341.370789 877.743408,341.363464 874.903748,341.297394 
	C861.266724,340.980408 847.608459,342.071686 833.987183,340.656219 
	C830.802551,340.325256 827.556885,340.250031 826.415527,336.699799 
	C825.522461,336.905090 825.061890,336.868286 824.914062,337.065643 
	C820.297424,343.229980 814.841431,343.982269 807.838135,340.877197 
	C803.971924,339.162994 799.288208,340.363342 794.507324,340.641113 
z"/>
<path fill="#000000" opacity="1.000000" stroke="none" 
	d="
M515.953979,672.935669 
	C516.057922,683.721008 516.008423,682.249207 507.058289,682.352295 
	C504.559296,682.381042 501.991028,682.062988 499.576324,682.531616 
	C494.877716,683.443420 493.483307,681.805603 493.524414,677.095032 
	C493.735260,652.934998 493.764465,628.771667 493.586548,604.611511 
	C493.552429,599.983215 494.962219,598.320679 499.571960,598.760071 
	C503.705292,599.154053 507.898621,599.111572 512.057190,598.986328 
	C515.370789,598.886658 516.361328,600.283508 516.325378,603.467041 
	C516.065979,626.458679 516.854614,649.456116 515.953979,672.935669 
z"/>
<path fill="#000000" opacity="1.000000" stroke="none" 
	d="
M643.998901,468.304016 
	C626.849976,468.218445 610.200806,468.162750 593.552490,468.018433 
	C591.662842,468.002075 589.065186,468.775726 588.164917,466.529785 
	C587.048157,463.743835 587.286377,460.600586 588.112305,457.708221 
	C588.574036,456.091003 590.335876,456.637848 591.606384,456.638702 
	C615.741028,456.654938 639.874268,456.555511 663.985657,458.028076 
	C686.602478,459.409424 709.252136,458.583740 731.887695,458.693176 
	C738.712708,458.726196 745.537720,458.758057 752.362732,458.795013 
	C755.358032,458.811218 758.242310,458.816895 760.972229,456.997589 
	C764.099487,454.913391 766.313049,457.177124 768.167236,459.401947 
	C770.183655,461.821442 771.599548,464.575714 769.122986,467.469177 
	C767.179504,469.739807 765.010559,472.277374 761.526672,470.095306 
	C758.662720,468.301483 755.574036,468.300751 752.386780,468.302917 
	C716.424194,468.327393 680.461609,468.312256 643.998901,468.304016 
z"/>
<path fill="#000000" opacity="1.000000" stroke="none" 
	d="
M355.479919,439.444183 
	C365.678833,436.779144 371.659027,443.071594 378.560181,448.434998 
	C374.794586,450.795715 371.222839,450.234406 367.807556,450.166504 
	C323.024719,449.276703 278.235809,449.275299 233.447586,449.162323 
	C222.957443,449.135864 212.466904,449.204773 201.977081,449.142181 
	C200.175415,449.131439 198.314697,448.886261 196.592697,448.374451 
	C194.702637,447.812653 192.450470,447.015320 192.535950,444.585938 
	C192.631592,441.868042 194.757446,440.568512 197.216431,440.184235 
	C199.504913,439.826599 201.850311,439.700714 204.170776,439.699493 
	C252.291458,439.674194 300.412170,439.683716 348.532867,439.674103 
	C350.696472,439.673645 352.860107,439.557831 355.479919,439.444183 
z"/>
<path fill="#000000" opacity="1.000000" stroke="none" 
	d="
M330.734741,298.072784 
	C338.163391,299.039917 345.169037,298.739624 352.144409,298.611511 
	C378.781097,298.122345 405.325256,300.964142 431.952026,300.683868 
	C435.753113,300.643860 439.554993,300.678314 443.533752,300.678314 
	C445.011719,303.194946 444.156982,306.059296 444.212128,308.817383 
	C444.262115,311.318573 442.881805,312.357117 440.448090,312.350098 
	C423.179688,312.300476 405.962097,312.051788 388.759949,309.779572 
	C376.595215,308.172729 364.234711,307.810577 351.945190,307.446564 
	C336.812714,306.998260 321.663239,307.123962 306.521088,307.004852 
	C302.906677,306.976410 299.418396,306.550323 297.531189,302.899109 
	C296.166260,300.258453 296.349823,297.718842 298.909210,295.787415 
	C301.179779,294.073975 303.337799,294.450104 305.030396,296.608673 
	C306.716736,298.759308 308.964478,298.851257 311.330597,298.764984 
	C317.642883,298.534882 323.954620,298.289062 330.734741,298.072784 
z"/>
<path fill="#000000" opacity="1.000000" stroke="none" 
	d="
M747.144470,403.318176 
	C769.715454,404.114014 791.859985,403.909149 814.002808,403.866394 
	C819.801941,403.855194 820.151062,404.404602 820.355164,410.037201 
	C820.515991,414.476044 818.412170,415.258575 814.589233,415.215210 
	C779.130859,414.813171 743.671082,414.526215 708.211548,414.227173 
	C701.918335,414.174103 695.624329,414.219666 689.293335,414.219666 
	C689.960022,406.379730 692.769714,403.854706 699.780884,403.816650 
	C715.423950,403.731750 731.066284,403.510223 747.144470,403.318176 
z"/>
<path fill="#000000" opacity="1.000000" stroke="none" 
	d="
M704.852600,488.957642 
	C677.916199,488.741943 651.462219,488.554443 625.009094,488.292328 
	C615.852356,488.201630 606.726196,488.705994 597.586548,489.096191 
	C594.232361,489.239410 588.885193,491.498901 588.693787,484.616821 
	C588.554138,479.595825 589.359863,479.075195 597.212036,478.935577 
	C630.493164,478.343658 663.765747,478.992218 697.037598,479.645752 
	C710.342896,479.907104 723.646729,480.263855 736.948669,480.661743 
	C739.494324,480.737915 742.780396,480.268585 742.392334,484.520142 
	C742.045044,488.325592 740.097046,488.981598 736.243164,488.674164 
	C725.967957,487.854492 715.633240,488.176178 704.852600,488.957642 
z"/>
<path fill="#000000" opacity="1.000000" stroke="none" 
	d="
M379.414490,279.541351 
	C398.199677,278.938416 416.482391,281.874023 434.813110,280.094330 
	C435.953522,279.983612 437.131012,280.262787 438.291840,280.353516 
	C442.050720,280.647308 443.406952,282.785217 443.268982,286.405609 
	C443.116028,290.420044 440.342590,290.472595 437.638214,290.170074 
	C424.515015,288.701965 411.334045,289.726837 398.192078,289.105316 
	C384.052765,288.436646 369.907379,287.681519 355.757904,287.505371 
	C342.749298,287.343384 329.811096,286.444305 316.854462,285.477753 
	C310.561676,285.008331 304.221985,285.168732 297.921295,286.199463 
	C294.156952,286.815308 291.109589,285.431244 290.867279,281.149261 
	C290.622131,276.817657 293.863617,276.740112 297.061432,276.687317 
	C324.405304,276.235657 351.675446,277.864685 379.414490,279.541351 
z"/>
<path fill="#000000" opacity="1.000000" stroke="none" 
	d="
M698.365540,420.187378 
	C725.963318,419.346405 753.067627,421.128418 780.192566,421.003998 
	C783.493286,420.988861 786.816345,421.632751 790.093872,422.181488 
	C792.543823,422.591644 793.718567,424.144684 793.685120,426.777985 
	C793.650879,429.487640 792.314758,430.724915 789.823120,431.054596 
	C787.183167,431.403931 784.547302,431.965363 781.898560,432.039886 
	C748.441650,432.981384 714.979980,432.710388 681.518860,432.294647 
	C680.567383,432.282867 679.619690,431.960785 678.667236,431.782806 
	C679.940918,425.476898 684.994751,420.968170 690.920105,420.652985 
	C693.247131,420.529175 695.572083,420.365356 698.365540,420.187378 
z"/>
<path fill="#000000" opacity="1.000000" stroke="none" 
	d="
M738.199829,396.287750 
	C724.708130,394.518616 711.528809,396.973694 698.430786,395.306183 
	C695.877930,394.981171 693.467590,394.834229 694.195374,391.454468 
	C694.777771,388.749634 693.370911,384.688782 698.636230,384.736755 
	C710.452026,384.844391 722.270752,384.621399 734.086914,384.707977 
	C737.788147,384.735077 739.975891,383.262787 741.074036,379.952789 
	C739.413086,377.797607 737.308899,378.149261 735.373291,378.163971 
	C723.229492,378.256104 711.096008,378.243469 698.954773,377.618256 
	C694.677856,377.398041 693.666565,375.624451 693.485413,371.827271 
	C693.276489,367.446533 696.172119,367.992493 698.764954,367.912720 
	C709.402344,367.585358 720.072021,368.488586 730.679810,367.129364 
	C732.889526,366.846191 734.137207,367.899719 735.068970,369.638367 
	C737.417175,374.020233 741.002319,376.589172 745.887756,377.681213 
	C747.942444,378.140533 749.924988,379.275116 751.730469,380.430664 
	C756.999939,383.803253 758.695801,390.125854 755.707397,394.638153 
	C751.283264,401.318207 747.473572,402.068329 740.767517,397.601044 
	C740.079407,397.142670 739.327881,396.779449 738.199829,396.287750 
z"/>
<path fill="#000000" opacity="1.000000" stroke="none" 
	d="
M228.390778,366.966858 
	C231.753967,365.489258 234.958374,365.772705 238.096710,365.742371 
	C240.961517,365.714722 243.735199,365.911438 245.692764,363.141693 
	C246.498703,362.001404 247.945084,361.459076 249.257294,362.286255 
	C257.877167,367.719971 267.696014,366.107544 276.961517,366.457825 
	C296.064026,367.179901 315.209351,366.719025 334.335724,366.890411 
	C340.389313,366.944641 341.373901,368.654175 339.750977,374.213562 
	C338.860168,377.265076 336.696320,377.230225 334.304504,377.293030 
	C320.660126,377.651367 307.042603,376.397400 293.418640,376.487610 
	C281.133972,376.568939 268.859161,377.894867 256.572754,378.033875 
	C247.808899,378.133026 239.410751,374.809753 230.615524,374.172394 
	C226.234299,373.854919 225.587433,370.952759 228.390778,366.966858 
z"/>
<path fill="#000000" opacity="1.000000" stroke="none" 
	d="
M410.003479,488.368500 
	C382.538696,488.640442 355.573120,488.898865 328.607880,489.188202 
	C325.446869,489.222107 322.392853,489.252625 322.139191,484.946564 
	C321.898560,480.861816 323.497040,478.893707 327.928345,478.946960 
	C342.580170,479.123047 357.254150,478.562103 371.884552,479.152649 
	C393.705322,480.033478 415.481445,479.078857 437.274109,478.635162 
	C440.775940,478.563843 443.181976,479.535248 443.273651,483.515442 
	C443.366028,487.527863 441.199463,489.242767 437.402344,489.295013 
	C436.570251,489.306458 435.712555,489.405212 434.909149,489.247467 
	C426.817474,487.658539 418.642578,488.512756 410.003479,488.368500 
z"/>
<path fill="#000000" opacity="1.000000" stroke="none" 
	d="
M328.904724,403.675842 
	C331.052551,403.676178 332.716766,403.693573 334.380341,403.668854 
	C342.439636,403.548981 343.128571,404.155518 344.219940,412.439789 
	C342.895508,413.936371 341.046539,414.102905 339.233063,414.146881 
	C325.931091,414.469421 312.628296,414.760620 299.325012,415.024567 
	C295.200378,415.106384 291.409973,414.472595 288.861877,410.572784 
	C287.854645,409.031281 285.967773,408.345856 284.169678,407.899078 
	C274.581268,405.516449 265.868439,405.135773 256.959442,411.859985 
	C248.778809,418.034393 238.252670,418.467804 228.260406,415.719757 
	C223.663651,414.455627 224.439545,409.873413 224.927887,406.338257 
	C225.499985,402.196777 228.892502,401.906403 232.233994,402.230286 
	C247.480911,403.708008 262.785980,404.691833 278.062317,403.730469 
	C294.873566,402.672424 311.638672,404.165985 328.904724,403.675842 
z"/>
<path fill="#000000" opacity="1.000000" stroke="none" 
	d="
M810.175537,483.431580 
	C810.739136,492.721985 807.822937,499.948242 799.889099,504.477325 
	C792.827576,508.508453 785.594421,508.578705 778.587280,504.255768 
	C770.647339,499.357361 767.028076,490.013428 769.334473,480.849060 
	C771.461243,472.398407 778.927551,466.116974 787.538330,465.534210 
	C797.441162,464.863983 805.115723,469.597595 808.802002,478.713226 
	C809.360107,480.093475 809.687195,481.567200 810.175537,483.431580 
M797.596313,483.088501 
	C794.972778,479.605377 791.777222,476.931580 787.147827,478.259338 
	C781.977356,479.742279 779.892334,484.549103 781.637146,489.876831 
	C783.036499,494.149750 788.164246,496.731476 792.564148,495.378418 
	C797.233459,493.942505 799.336670,489.407227 797.596313,483.088501 
z"/>
<path fill="#000000" opacity="1.000000" stroke="none" 
	d="
M263.340881,256.425293 
	C274.370209,258.558594 282.590637,269.258026 280.837158,278.746338 
	C278.299072,292.480011 268.851868,299.582367 255.537476,297.177399 
	C244.415298,295.168396 238.554047,287.164978 240.757980,270.619324 
	C241.897232,262.066620 252.751373,255.118011 263.340881,256.425293 
M265.555573,268.881683 
	C261.690308,265.930115 257.854614,265.098419 253.984879,268.916046 
	C250.130371,272.718658 249.333115,276.739288 251.668365,281.040161 
	C254.028595,285.387054 257.836884,286.942627 263.063354,285.694580 
	C271.098816,283.775757 272.536194,276.130951 265.555573,268.881683 
z"/>
<path fill="#000000" opacity="1.000000" stroke="none" 
	d="
M592.366577,290.316833 
	C589.579590,290.343231 588.050354,289.709747 588.368835,286.855957 
	C588.673645,284.124908 589.264404,281.971130 592.654785,281.933075 
	C601.475891,281.833954 610.225769,280.499390 619.081360,280.667145 
	C639.735046,281.058441 660.384888,280.653534 681.023254,279.715271 
	C683.376343,279.608307 685.795166,279.635315 687.755005,278.233093 
	C690.292664,276.417389 692.669312,276.138062 694.909668,278.437531 
	C696.612610,280.185364 697.714478,282.328430 696.389099,284.763550 
	C694.918640,287.465271 692.834229,290.414917 689.569092,289.777985 
	C671.628967,286.278381 653.676086,288.944122 635.768127,289.518646 
	C621.449524,289.977966 607.136047,290.067596 592.366577,290.316833 
z"/>
<path fill="#000000" opacity="1.000000" stroke="none" 
	d="
M283.416534,504.776978 
	C270.873077,494.243011 273.187042,478.209045 287.943329,472.198700 
	C294.908661,469.361633 301.030701,471.664886 306.271851,476.581329 
	C311.779480,481.747742 313.739929,490.440643 311.115051,497.287018 
	C308.493591,504.124420 302.918915,508.102478 295.994202,508.405243 
	C291.477203,508.602753 287.426117,507.516113 283.416534,504.776978 
M300.544830,486.981384 
	C300.124847,486.468414 299.757629,485.898590 299.276428,485.451569 
	C295.968689,482.378845 292.362915,482.283783 288.922546,484.975433 
	C286.514587,486.859314 285.493958,489.429932 287.302917,492.438629 
	C289.515137,496.118042 294.260071,498.131348 297.521271,496.318878 
	C300.853302,494.467010 302.704254,491.653656 300.544830,486.981384 
z"/>
<path fill="#000000" opacity="1.000000" stroke="none" 
	d="
M299.016357,349.716339 
	C315.112946,349.719696 330.712219,349.719696 346.335327,349.719696 
	C345.935486,356.920624 344.104492,358.933929 337.880737,359.117737 
	C320.944061,359.618042 304.010590,360.076294 287.060516,359.375671 
	C278.438171,359.019257 269.792847,360.223206 261.160828,359.304810 
	C259.020813,359.077118 256.843506,358.957428 254.766068,358.449646 
	C252.500854,357.895996 249.944809,357.079254 250.279602,354.049530 
	C250.607407,351.083160 252.967133,349.992188 255.661407,349.823730 
	C260.803497,349.502258 265.954895,349.092529 271.100555,349.116547 
	C280.240784,349.159241 289.379608,349.498047 299.016357,349.716339 
z"/>
<path fill="#000000" opacity="1.000000" stroke="none" 
	d="
M723.999756,325.345673 
	C704.872803,324.882385 686.268738,325.864868 667.660828,326.373230 
	C660.083618,326.580231 657.708374,325.305328 656.832214,318.444824 
	C659.521729,317.079834 662.505432,317.080688 665.454834,316.975708 
	C684.888611,316.284058 704.319458,315.946899 723.769897,316.531647 
	C731.714844,316.770477 739.689880,316.274139 747.641541,315.905060 
	C751.421875,315.729614 753.942017,316.888031 754.115295,320.915924 
	C754.303467,325.289917 751.105896,325.375580 747.944336,325.367188 
	C740.129456,325.346466 732.314636,325.352966 723.999756,325.345673 
z"/>
<path fill="#000000" opacity="1.000000" stroke="none" 
	d="
M348.685425,432.016968 
	C326.092377,431.972412 303.928040,433.082489 281.024261,431.328827 
	C283.781494,425.323303 285.982666,421.042847 292.162598,421.083435 
	C309.153107,421.194977 326.144409,421.258362 343.135193,421.228088 
	C349.574982,421.216614 352.380585,425.408844 354.866730,430.206848 
	C353.171906,432.383972 351.101196,432.005737 348.685425,432.016968 
z"/>
<path fill="#000000" opacity="1.000000" stroke="none" 
	d="
M155.137939,440.714478 
	C161.987411,439.286041 167.862701,440.104828 172.310242,445.487701 
	C176.246445,450.251801 177.064911,455.627228 174.819122,461.407990 
	C172.092865,468.425507 167.018677,471.638336 159.235199,471.332184 
	C153.192276,471.094482 146.297882,466.858459 145.185364,461.787415 
	C143.648102,454.780365 144.133179,447.870270 150.799988,442.890106 
	C151.978836,442.009552 153.419403,441.479340 155.137939,440.714478 
M159.881454,449.570038 
	C159.143112,449.922882 158.316818,450.161102 157.681580,450.648346 
	C154.881683,452.796021 154.353363,455.617310 156.268906,458.436798 
	C157.746658,460.611908 159.986908,462.795654 162.833832,460.692932 
	C165.608139,458.643860 166.310562,455.616547 164.764557,452.333160 
	C163.938995,450.579865 162.696716,449.378265 159.881454,449.570038 
z"/>
<path fill="#000000" opacity="1.000000" stroke="none" 
	d="
M285.997955,396.347290 
	C284.394623,396.223419 283.197968,396.268433 282.081757,395.990479 
	C278.338715,395.058472 275.491516,392.948578 275.877258,388.776520 
	C276.268799,384.541382 280.055328,384.204376 283.124542,384.388641 
	C299.591003,385.377289 316.062347,384.552979 332.527252,384.811188 
	C337.552460,384.889984 340.366882,389.456360 338.194977,393.916870 
	C337.465363,395.415283 336.131744,395.379547 334.792358,395.405121 
	C318.675140,395.713074 302.574097,396.832336 285.997955,396.347290 
z"/>
<path fill="#000000" opacity="1.000000" stroke="none" 
	d="
M248.803757,502.268463 
	C239.215759,504.708038 230.796494,500.220825 228.762070,491.916962 
	C226.653687,483.311218 231.684830,475.012115 240.396591,472.725220 
	C249.149506,470.427521 257.037018,475.133362 259.513336,484.130646 
	C261.238312,490.398010 256.748474,498.230988 248.803757,502.268463 
M249.333817,485.415527 
	C248.628006,484.735504 248.011749,483.913513 247.200012,483.401367 
	C244.511688,481.705139 242.112213,482.498596 240.095001,484.625366 
	C238.413406,486.398407 238.193451,488.358093 239.775253,490.420441 
	C241.675583,492.898193 244.198029,493.341888 246.850723,492.280670 
	C249.555939,491.198456 250.182983,488.835083 249.333817,485.415527 
z"/>
<path fill="#000000" opacity="1.000000" stroke="none" 
	d="
M420.357819,270.809814 
	C412.326660,273.489502 408.899109,272.523315 404.849640,265.835297 
	C403.108002,262.958832 401.036743,262.104401 397.942810,262.157776 
	C387.961700,262.329926 378.002655,262.744202 368.109528,264.160736 
	C365.082947,264.594116 362.606140,264.023712 362.303955,260.490814 
	C362.012329,257.081085 364.137970,255.445145 367.270233,255.811844 
	C377.507507,257.010376 387.933624,256.387268 398.023743,258.645233 
	C401.782654,259.486389 403.869904,259.119507 406.238586,255.755585 
	C410.809875,249.263672 419.342926,249.483658 424.089813,255.678757 
	C428.406342,261.312225 427.601715,264.864960 420.357819,270.809814 
z"/>
<path fill="#000000" opacity="1.000000" stroke="none" 
	d="
M346.977356,326.234833 
	C335.224060,325.238312 323.918488,325.353363 312.623352,325.133575 
	C311.464478,325.111053 310.294586,325.020386 309.154144,324.821655 
	C306.826019,324.415955 304.882935,323.376007 305.175476,320.648590 
	C305.436218,318.217529 307.026093,316.813599 309.556946,316.715302 
	C314.203827,316.534790 318.854401,316.192078 323.498871,316.254639 
	C337.110809,316.437988 350.722565,316.716949 364.329468,317.123291 
	C367.561707,317.219788 370.969238,317.200165 373.781799,319.324188 
	C371.150269,326.049316 368.864868,327.626862 362.368683,327.229431 
	C357.397675,326.925354 352.429596,326.573547 346.977356,326.234833 
z"/>
<path fill="#000000" opacity="1.000000" stroke="none" 
	d="
M686.987244,500.527069 
	C704.057251,499.580353 720.716614,499.582336 737.374939,499.718903 
	C740.047607,499.740845 743.255493,500.171051 743.181213,503.745575 
	C743.105286,507.398590 739.947571,507.202667 737.209534,507.389465 
	C720.568604,508.524567 703.905823,508.062134 687.251221,508.179443 
	C685.080139,508.194733 682.913574,508.117340 681.037109,509.536926 
	C679.009338,511.071075 676.708984,512.095642 675.036987,509.393036 
	C673.508545,506.922455 669.451233,505.338074 671.441589,501.420654 
	C673.123474,498.110474 676.183105,498.159027 679.273010,498.994324 
	C681.677979,499.644501 683.993530,500.669647 686.987244,500.527069 
z"/>
<path fill="#000000" opacity="1.000000" stroke="none" 
	d="
M896.428223,383.252686 
	C900.655396,383.799683 905.470520,383.802765 905.363159,388.912201 
	C905.263550,393.653381 901.008972,394.901825 896.751282,395.488861 
	C885.829163,396.994812 874.873291,396.283691 863.933533,396.131409 
	C860.080017,396.077789 857.678223,393.585236 857.852295,389.671844 
	C858.015930,385.992889 859.803955,383.584045 864.122009,383.536713 
	C874.743042,383.420319 885.356567,382.660614 896.428223,383.252686 
z"/>
<path fill="#000000" opacity="1.000000" stroke="none" 
	d="
M505.231506,565.921143 
	C513.613342,567.221863 518.058228,571.735596 518.310425,578.752502 
	C518.521606,584.629211 515.131226,590.788086 510.846832,592.310364 
	C506.133331,593.985291 500.399475,592.487000 497.202454,588.744934 
	C493.691040,584.634888 493.242676,577.263916 496.258240,572.350220 
	C498.257446,569.092651 501.147949,566.982483 505.231506,565.921143 
z"/>
<path fill="#000000" opacity="1.000000" stroke="none" 
	d="
M382.299744,507.396210 
	C381.013519,508.666412 379.779480,509.005219 378.383118,508.890869 
	C365.614136,507.845154 352.840118,508.305481 340.062958,508.719910 
	C333.737213,508.925110 331.818939,507.016449 333.278900,502.392273 
	C333.980652,500.169525 335.264313,499.102631 337.645691,499.243225 
	C350.589813,500.007202 363.517822,499.762054 376.454376,498.847931 
	C383.402740,498.356964 384.534271,500.104645 382.299744,507.396210 
z"/>
<path fill="#000000" opacity="1.000000" stroke="none" 
	d="
M573.767761,726.619629 
	C573.442444,728.034912 573.329285,729.186707 573.168274,730.331726 
	C572.930115,732.026062 571.724182,732.401428 570.270325,732.360352 
	C568.983154,732.323975 567.869202,731.846741 567.862732,730.406738 
	C567.832092,723.610901 567.500610,716.781128 568.083618,710.033264 
	C568.358459,706.851318 571.221436,707.449951 572.850647,709.373962 
	C574.981384,711.890198 576.683533,714.769348 578.869690,717.924866 
	C581.342102,716.148193 582.854858,713.687988 584.235046,711.130798 
	C585.055908,709.609985 585.875366,708.222290 587.981018,708.558289 
	C590.310974,708.930176 590.866821,710.691833 590.932678,712.561646 
	C591.131165,718.198059 591.223511,723.839966 591.246033,729.480103 
	C591.253723,731.415894 590.645203,733.267883 588.255737,733.280945 
	C585.585510,733.295593 585.705383,731.164307 585.678101,729.337952 
	C585.645691,727.169556 585.557739,725.027100 584.363708,722.498596 
	C582.232849,727.875427 578.612854,728.767395 573.767761,726.619629 
z"/>
<path fill="#000000" opacity="1.000000" stroke="none" 
	d="
M425.139832,706.807495 
	C430.776825,708.031616 432.739899,713.424988 436.485077,716.956116 
	C439.345093,715.149170 440.117279,712.177490 442.076447,710.204102 
	C443.060516,709.212830 443.960205,708.266785 445.472015,708.588196 
	C447.210205,708.957764 448.037140,710.389221 448.078461,711.874817 
	C448.245056,717.861572 448.226624,723.854614 448.198853,729.844971 
	C448.192963,731.117676 447.526672,732.066284 446.052582,732.078674 
	C444.604523,732.090820 444.067200,731.212646 443.802216,729.924744 
	C443.379700,727.870789 444.321960,725.567078 442.729492,723.679382 
	C439.872192,724.288818 439.839417,729.271545 436.193787,728.094543 
	C433.656952,727.275513 433.616272,723.566650 430.896179,722.416199 
	C429.816193,724.570923 430.454895,726.753662 430.281036,728.850586 
	C430.148254,730.451782 430.600983,732.423645 428.071106,732.533752 
	C425.432678,732.648499 424.664276,731.082764 424.667053,728.721680 
	C424.675079,721.893066 424.614380,715.064331 424.557495,707.796326 
	C424.669189,707.235229 424.804016,707.113403 425.139832,706.807495 
z"/>
<path fill="#000000" opacity="1.000000" stroke="none" 
	d="
M820.547607,722.853088 
	C820.374268,725.310059 820.334351,727.471741 820.221252,729.629517 
	C820.143372,731.116089 819.573181,732.230347 817.812073,732.110901 
	C816.354736,732.012024 815.798340,731.017151 815.788269,729.750366 
	C815.736938,723.271606 815.726685,716.792236 815.741394,710.313293 
	C815.743713,709.281372 816.107544,708.284973 817.171570,707.890198 
	C818.658875,707.338379 819.843750,708.130981 820.640137,709.214722 
	C822.693054,712.008545 824.600708,714.909058 827.015381,718.419678 
	C828.807007,715.276184 830.362244,712.607849 831.854431,709.904663 
	C832.625671,708.507446 833.503662,707.346313 835.323547,707.705933 
	C837.194885,708.075806 838.184021,709.251099 838.283630,711.171509 
	C838.593262,717.138977 838.954529,723.104309 839.197754,729.074524 
	C839.274109,730.946899 839.055603,732.922607 836.559387,733.129028 
	C834.033142,733.337891 833.606812,731.338013 833.312744,729.528687 
	C832.914978,727.081360 832.743835,724.597168 832.446777,721.864868 
	C830.011414,723.341492 830.063660,726.837646 827.523621,728.004944 
	C823.831055,727.861389 824.524963,722.359375 820.547607,722.853088 
z"/>
<path fill="#000000" opacity="1.000000" stroke="none" 
	d="
M896.235474,566.692261 
	C903.675598,566.831970 908.139771,569.533020 909.181274,574.253479 
	C910.596497,580.667664 909.222534,587.253540 906.138428,588.682312 
	C904.717041,586.975830 906.483337,585.242065 906.117432,583.331116 
	C904.427002,584.862122 903.465881,587.643555 900.634583,586.698792 
	C897.639099,585.699219 897.352844,582.816833 896.726746,580.151672 
	C895.125488,582.822266 898.521851,586.417419 894.504761,588.773193 
	C891.506165,590.531677 889.774048,590.228577 887.860474,587.653870 
	C881.965576,579.722290 886.060486,568.871033 896.235474,566.692261 
M903.446777,575.901978 
	C903.941467,574.572693 905.143555,573.069824 903.159180,572.067566 
	C900.039185,570.491699 896.883240,570.895264 893.678101,572.097534 
	C897.747192,572.758972 901.166260,573.915588 902.096863,579.096619 
	C902.686279,577.674927 902.936157,577.072327 903.446777,575.901978 
M890.605103,585.316284 
	C894.315369,583.542053 892.182129,580.625671 891.878479,578.160461 
	C891.780090,577.361938 890.507202,577.061523 889.782837,577.584900 
	C887.303467,579.376099 888.232300,581.619934 889.186523,583.794739 
	C889.380737,584.237366 889.745850,584.604980 890.605103,585.316284 
z"/>
<path fill="#000000" opacity="1.000000" stroke="none" 
	d="
M615.718140,709.478760 
	C618.956116,707.574280 620.588013,709.783936 622.159973,711.647034 
	C624.068420,713.909180 625.729858,716.379700 627.834534,719.212891 
	C629.479126,715.578125 628.006958,712.215454 628.868958,709.030396 
	C632.319214,708.071594 634.108337,709.192688 634.107788,712.738342 
	C634.106995,718.221252 634.089417,723.705200 633.968140,729.186279 
	C633.936279,730.624390 633.926453,732.410156 632.126526,732.890259 
	C630.428589,733.343323 629.347839,732.032349 628.455994,730.834106 
	C626.096069,727.663818 623.815979,724.433960 621.102844,720.671265 
	C619.567383,723.980652 620.540527,726.928711 620.244080,729.712891 
	C620.100586,731.060547 620.074707,732.551575 618.385864,732.806702 
	C616.444336,733.099976 615.745178,731.693237 615.530334,730.096375 
	C614.620483,723.334595 614.234436,716.564941 615.718140,709.478760 
z"/>
<path fill="#000000" opacity="1.000000" stroke="none" 
	d="
M786.439331,711.534607 
	C793.967529,719.954041 789.226562,726.807678 781.883057,732.073486 
	C780.026428,733.404724 777.902649,733.484924 775.679504,732.800537 
	C770.866333,731.318726 767.026367,727.163391 766.712097,722.516907 
	C766.359253,717.300964 767.225525,712.216919 772.305481,709.589355 
	C777.036560,707.142395 781.946533,707.431274 786.439331,711.534607 
M782.527832,723.900269 
	C784.479919,720.376465 784.423706,717.237427 780.580078,715.050171 
	C777.808105,713.472717 775.506653,714.417297 773.676575,716.797668 
	C771.233643,719.975159 772.542297,722.751953 774.877136,725.159912 
	C777.413147,727.775452 779.882629,726.926514 782.527832,723.900269 
z"/>
<path fill="#000000" opacity="1.000000" stroke="none" 
	d="
M257.688019,718.380188 
	C258.150513,715.971191 259.126770,714.257080 260.412659,712.713379 
	C265.038483,707.160095 270.821777,706.177246 275.571381,710.121216 
	C281.867950,715.349915 282.882660,722.345276 277.879852,727.814026 
	C274.835846,731.141479 271.385590,734.352173 266.285797,732.625610 
	C261.269806,730.927429 257.785919,725.052429 257.688019,718.380188 
M272.655090,725.182983 
	C273.738983,724.091675 274.566925,722.825928 274.563416,721.259033 
	C274.557526,718.619263 273.622162,716.309082 271.241547,714.993469 
	C269.131531,713.827332 267.007233,714.325439 265.268188,715.916748 
	C263.366882,717.656616 262.754700,719.898254 263.862152,722.247742 
	C265.527740,725.781433 267.910339,728.019592 272.655090,725.182983 
z"/>
<path fill="#000000" opacity="1.000000" stroke="none" 
	d="
M606.070679,267.571960 
	C603.870483,260.840424 606.440308,254.787964 612.134094,252.516724 
	C617.621948,250.327652 622.730408,252.645279 625.644409,258.358826 
	C627.783508,262.552948 626.704956,266.101196 623.841309,269.286896 
	C620.810181,272.658966 616.932739,273.703949 612.564087,272.436310 
	C609.968872,271.683350 607.688599,270.360229 606.070679,267.571960 
M615.848877,266.365936 
	C618.921509,266.142700 619.892456,264.343170 619.064514,261.624786 
	C618.600525,260.101593 617.283081,258.894836 615.591675,259.747650 
	C612.998596,261.055115 613.628906,263.247284 614.606628,265.339081 
	C614.739563,265.623474 615.049561,265.825073 615.848877,266.365936 
z"/>
<path fill="#000000" opacity="1.000000" stroke="none" 
	d="
M426.644836,513.601074 
	C424.111572,515.786865 421.359833,516.514648 418.559113,516.955933 
	C410.686218,518.196472 403.909546,511.278015 405.375275,503.452820 
	C406.189423,499.106354 409.727356,498.171570 413.342010,498.160645 
	C416.133270,498.152222 418.979889,498.752380 421.709564,499.445526 
	C429.364319,501.389374 431.219696,506.471741 426.644836,513.601074 
M417.846832,501.787872 
	C413.182007,501.958466 415.652405,505.185059 415.828979,507.062531 
	C416.000732,508.888489 417.538971,509.822021 419.484436,509.056427 
	C421.392487,508.305573 421.841125,506.805939 420.889069,505.098999 
	C420.272614,503.993652 419.267548,503.105011 417.846832,501.787872 
z"/>
<path fill="#000000" opacity="1.000000" stroke="none" 
	d="
M484.218384,711.585022 
	C486.401947,713.822083 487.337616,716.788513 490.328369,717.786255 
	C492.426422,716.040588 491.440857,713.716858 491.636627,711.687012 
	C491.791779,710.078735 491.959106,708.674927 493.962372,708.470520 
	C495.964172,708.266174 496.802399,709.559814 496.814453,711.159241 
	C496.862061,717.464233 496.777771,723.771606 496.630219,730.075500 
	C496.603210,731.229919 496.010986,732.358337 494.694366,732.738464 
	C493.087158,733.202332 492.348846,732.094910 491.443542,731.048767 
	C488.652863,727.823914 487.035675,723.661804 483.359589,720.633240 
	C481.537537,723.684326 482.664001,726.710876 482.319580,729.537292 
	C482.143402,730.983032 482.484039,732.800171 480.369659,732.999878 
	C478.006683,733.223206 477.662537,731.386963 477.652344,729.675232 
	C477.615753,723.523254 476.873779,717.218811 477.976379,711.264160 
	C478.934998,706.087219 481.907898,709.844910 484.218384,711.585022 
z"/>
<path fill="#000000" opacity="1.000000" stroke="none" 
	d="
M539.089233,714.794556 
	C531.484436,713.667664 527.854065,716.641541 529.301147,722.412109 
	C530.255188,726.216736 533.021790,727.257080 536.680603,725.021667 
	C535.920349,723.375366 532.208191,723.108704 534.201599,720.119995 
	C534.288208,720.059021 534.439087,719.864014 534.558044,719.881836 
	C537.811829,720.369385 542.502625,715.881348 544.055176,722.124451 
	C545.334106,727.267151 540.594482,732.619385 534.988770,733.096069 
	C530.834045,733.449280 525.800781,730.095398 523.591248,725.501221 
	C521.390686,720.925842 522.571045,716.354919 526.828430,711.999573 
	C530.434326,708.310791 534.592407,707.872437 539.185913,709.509521 
	C540.641479,710.028320 541.924011,710.965698 542.057434,712.647034 
	C542.193604,714.361694 541.066956,714.952454 539.089233,714.794556 
z"/>
<path fill="#000000" opacity="1.000000" stroke="none" 
	d="
M708.046204,731.419678 
	C708.877014,722.327576 712.686401,714.750610 716.876282,707.555908 
	C719.478699,707.724731 720.559448,709.025879 721.272156,710.543274 
	C724.091919,716.547485 726.980957,722.530945 728.650330,728.997803 
	C729.021851,730.436768 729.719910,732.059998 727.859131,732.896484 
	C726.124817,733.676208 724.806213,732.912048 723.586670,731.424500 
	C718.903564,725.711853 716.890625,725.674683 712.402283,731.447693 
	C710.871094,733.417236 709.692017,732.688354 708.046204,731.419678 
z"/>
<path fill="#000000" opacity="1.000000" stroke="none" 
	d="
M359.961975,712.098389 
	C360.944092,710.253357 360.717255,707.733276 363.133575,707.686707 
	C365.612885,707.638977 366.306610,709.948242 366.955200,711.749329 
	C368.539520,716.149109 370.545532,720.338196 372.619598,724.513855 
	C373.348297,725.980957 373.850708,727.603210 374.188019,729.210999 
	C374.595673,731.153992 373.616882,732.367065 371.683868,732.841492 
	C369.886902,733.282410 368.716003,732.621460 368.324554,730.849548 
	C367.769196,728.335754 366.354340,727.191467 363.728790,727.352173 
	C361.569397,727.484314 359.824127,727.893433 359.210846,730.365540 
	C358.605804,732.804565 356.848877,733.571228 354.618317,732.668274 
	C352.062042,731.633484 352.561676,729.487732 353.345642,727.585510 
	C355.437073,722.511108 357.661652,717.491577 359.961975,712.098389 
z"/>
<path fill="#000000" opacity="1.000000" stroke="none" 
	d="
M770.899963,387.426758 
	C773.053772,380.697693 775.794861,378.459198 780.120789,379.522797 
	C785.144653,380.757996 789.165222,386.635071 788.403320,391.629730 
	C787.767151,395.799896 782.226562,400.150482 777.810242,399.851746 
	C774.556030,399.631653 772.943970,397.383850 771.769165,394.670135 
	C770.819885,392.477386 770.757507,390.171814 770.899963,387.426758 
z"/>
<path fill="#000000" opacity="1.000000" stroke="none" 
	d="
M793.724976,723.923828 
	C793.711548,718.810852 793.711548,714.177124 793.711548,709.334778 
	C797.757812,708.104370 801.756287,708.285339 805.590637,709.096436 
	C810.635498,710.163574 813.334900,716.931580 809.853821,720.486755 
	C806.197205,724.221130 806.711487,726.804077 810.193237,729.823242 
	C810.641357,730.211792 810.803772,730.929749 811.217651,731.723450 
	C808.540222,733.648315 806.857056,732.040894 805.206299,730.445374 
	C803.582886,728.876099 803.050964,726.234131 800.514343,725.568848 
	C798.416321,726.261719 798.495483,728.042664 798.303162,729.668884 
	C798.157715,730.899231 797.849121,732.063721 796.345398,732.085388 
	C794.589783,732.110779 794.198975,730.768066 794.061218,729.382141 
	C793.896851,727.728149 793.841064,726.063232 793.724976,723.923828 
M799.779175,713.884155 
	C797.305054,716.296509 797.714600,718.278137 800.894348,719.385437 
	C802.555481,719.963745 804.717285,719.381836 805.013062,717.607483 
	C805.561523,714.318176 802.709167,714.220337 799.779175,713.884155 
z"/>
<path fill="#000000" opacity="1.000000" stroke="none" 
	d="
M240.280502,710.162354 
	C240.747543,712.787537 239.346664,715.425171 241.613022,717.130066 
	C244.546265,719.336426 248.295761,716.966919 248.598679,712.727661 
	C248.757217,710.509277 248.581085,708.095093 251.793472,708.280884 
	C255.014343,708.467163 253.960403,710.985413 253.968582,712.815735 
	C253.993057,718.294800 254.018311,723.775269 253.919525,729.252869 
	C253.887360,731.037354 253.877228,733.190613 251.206406,733.148132 
	C248.498169,733.105164 248.769409,730.952209 248.666046,729.158447 
	C248.580185,727.668213 248.665375,726.160950 248.482147,724.685181 
	C248.213272,722.519592 246.568817,722.252686 244.784348,722.269592 
	C242.975510,722.286804 241.429077,722.618774 241.301956,724.872070 
	C241.199097,726.695312 241.148666,728.523865 240.971985,730.340027 
	C240.809723,732.007935 240.034958,733.164124 238.126358,733.090759 
	C236.429337,733.025513 235.790237,731.930542 235.777557,730.458130 
	C235.720352,723.817810 235.413086,717.157349 235.830383,710.544250 
	C236.052490,707.024292 238.160553,706.899109 240.280502,710.162354 
z"/>
<path fill="#000000" opacity="1.000000" stroke="none" 
	d="
M198.971832,724.135376 
	C201.213272,719.435913 203.436630,715.145874 205.361603,710.725830 
	C206.927780,707.129822 209.215958,707.510864 210.917313,709.981323 
	C215.010025,715.924316 216.946915,722.885254 219.138382,729.680542 
	C219.521347,730.867981 218.942825,731.950928 217.624695,732.455200 
	C215.886307,733.120239 214.589233,732.504639 213.982361,730.896973 
	C213.056580,728.444397 211.258865,727.222351 208.859024,726.637878 
	C206.080429,725.961060 203.620728,725.932129 202.145233,729.088013 
	C201.229126,731.047546 199.733841,732.277771 197.308868,731.062256 
	C196.302795,728.495789 198.303650,726.656311 198.971832,724.135376 
z"/>
<path fill="#000000" opacity="1.000000" stroke="none" 
	d="
M472.376434,732.893738 
	C469.494720,733.384583 468.754608,731.373901 467.570312,729.767212 
	C465.059601,726.361084 460.934357,726.485901 458.468933,729.913452 
	C456.628204,732.472473 456.628174,732.472473 452.701324,731.952332 
	C455.193756,724.329712 457.576355,716.803284 460.149719,709.342590 
	C460.789581,707.487610 462.337341,707.641541 463.838287,708.650757 
	C467.248199,710.943481 473.595276,728.121338 472.376434,732.893738 
z"/>
<path fill="#000000" opacity="1.000000" stroke="none" 
	d="
M501.953369,726.041870 
	C504.429077,719.763733 506.763184,713.844727 509.050781,708.043640 
	C512.899475,708.628296 513.282471,711.419128 514.400146,713.509216 
	C516.978455,718.330750 519.464783,723.197205 520.569153,728.628662 
	C520.902283,730.267395 521.586426,732.146606 519.419189,732.840637 
	C517.666809,733.401978 516.359192,732.250488 515.294800,730.783325 
	C511.786743,725.947815 508.704529,725.889954 505.627228,730.689636 
	C504.651825,732.210938 503.765961,733.668396 501.815918,732.945129 
	C499.590698,732.119934 500.445190,730.286194 500.917480,728.718506 
	C501.155640,727.927917 501.509918,727.172302 501.953369,726.041870 
z"/>
<path fill="#000000" opacity="1.000000" stroke="none" 
	d="
M683.757751,709.705811 
	C690.474792,715.817322 689.310791,722.712769 681.039673,724.743958 
	C676.613403,725.830872 674.716492,727.560974 675.119263,731.963074 
	C672.302979,732.853882 670.795471,732.264465 670.667542,729.256287 
	C670.456360,724.289917 670.250549,719.320129 669.868530,714.365234 
	C669.509277,709.706726 671.666504,708.065430 676.075439,708.581055 
	C678.517517,708.866638 681.074524,708.210571 683.757751,709.705811 
M676.532288,715.312805 
	C675.853821,717.146484 675.506958,718.994202 678.082153,719.442017 
	C679.561829,719.699341 680.633057,718.646545 680.623657,717.137634 
	C680.608582,714.718689 679.235413,714.039551 676.532288,715.312805 
z"/>
<path fill="#000000" opacity="1.000000" stroke="none" 
	d="
M304.654846,723.951721 
	C304.662262,719.807800 304.640656,716.154724 304.697388,712.502808 
	C304.717407,711.215942 304.385468,709.510925 305.855988,708.951111 
	C309.921570,707.403564 314.080139,708.234863 317.993561,709.477844 
	C321.180054,710.489929 322.298584,713.360168 322.325043,716.631226 
	C322.357330,720.625610 319.650238,722.634583 316.568909,723.990601 
	C313.261536,725.445984 309.494934,726.008606 309.943207,731.048401 
	C310.065857,732.427551 308.656708,733.255798 307.081512,733.133667 
	C305.388123,733.002441 304.850739,731.857117 304.780518,730.416138 
	C304.683624,728.427795 304.692871,726.434265 304.654846,723.951721 
M315.329865,717.349548 
	C314.978180,714.734863 313.336243,713.829468 311.141266,714.906311 
	C309.867279,715.531250 309.949280,717.488647 310.684174,718.512695 
	C312.248413,720.692444 313.778168,719.481567 315.329865,717.349548 
z"/>
<path fill="#000000" opacity="1.000000" stroke="none" 
	d="
M601.128418,732.341553 
	C597.302490,732.666748 595.810913,731.278381 595.902100,727.788574 
	C596.036255,722.651855 595.913574,717.505615 595.788269,712.366150 
	C595.726929,709.848816 596.749695,708.687622 599.292419,708.742310 
	C602.110413,708.802979 604.931763,708.703552 607.750427,708.748474 
	C609.066895,708.769409 610.659790,708.769897 610.761902,710.566528 
	C610.865417,712.386658 609.991455,713.684143 608.010010,714.112732 
	C605.927795,714.563049 603.322510,713.321716 601.758667,715.737610 
	C602.500183,718.196960 604.441223,717.515259 605.947632,717.699707 
	C607.470215,717.886169 609.055908,717.874268 609.081543,720.006165 
	C609.104004,721.871826 607.846375,722.560791 606.283508,722.945862 
	C604.665894,723.344482 602.444214,722.472900 601.793701,725.086731 
	C602.681824,727.460938 604.779358,726.654846 606.440857,726.757629 
	C608.369995,726.877014 610.185486,726.917358 610.259766,729.520081 
	C610.335327,732.167114 608.516785,732.347961 606.579102,732.359924 
	C604.920532,732.370117 603.261902,732.349426 601.128418,732.341553 
z"/>
<path fill="#000000" opacity="1.000000" stroke="none" 
	d="
M860.163574,358.255432 
	C861.922241,364.020630 859.827820,369.566101 855.184814,372.270081 
	C853.357178,373.334442 851.441711,373.742035 849.500244,372.708862 
	C845.953125,370.821167 844.159912,367.943176 844.464050,363.791016 
	C844.792603,359.306061 846.403625,355.595062 850.829590,353.994873 
	C854.871887,352.533508 857.920105,354.283997 860.163574,358.255432 
z"/>
<path fill="#000000" opacity="1.000000" stroke="none" 
	d="
M288.851440,721.114990 
	C285.769745,718.965210 283.568573,716.686096 285.342957,713.010132 
	C287.255066,709.048767 290.687378,707.726013 294.883026,708.288147 
	C297.247375,708.604919 299.293701,709.816528 298.816315,712.468079 
	C298.255493,715.583008 295.963715,714.363708 294.092743,713.693909 
	C293.091858,713.335632 292.157715,713.359436 291.045258,714.226196 
	C291.664856,717.486084 294.824615,717.471191 296.913055,718.611145 
	C300.237366,720.425720 302.399780,723.036560 300.957001,726.673584 
	C299.450256,730.472046 296.572144,733.678955 291.914276,733.183228 
	C288.122101,732.779663 284.881836,731.014465 284.306915,726.594421 
	C284.254822,726.193848 284.699005,725.728821 284.901154,725.317261 
	C287.067352,724.577148 288.309448,726.439880 289.978912,726.981018 
	C291.463287,727.462219 292.992218,728.133972 293.997223,726.494263 
	C295.184052,724.557861 293.338226,723.933594 292.145294,723.139648 
	C291.175964,722.494507 290.159271,721.920715 288.851440,721.114990 
z"/>
<path fill="#000000" opacity="1.000000" stroke="none" 
	d="
M562.170654,729.978149 
	C560.144226,732.174866 550.803894,733.397766 549.204224,732.077271 
	C548.223633,731.267700 548.088501,730.043762 548.067566,728.883301 
	C547.965698,723.228271 547.913574,717.572327 547.851624,711.916565 
	C547.833313,710.249512 548.307800,708.879150 550.266418,708.811890 
	C554.377075,708.670654 558.508179,708.312439 562.653870,709.156921 
	C563.291260,717.669861 555.043945,712.090759 552.860107,715.664551 
	C553.105408,717.755737 554.637512,717.437317 555.881226,717.700195 
	C557.880859,718.122925 561.152100,716.533142 561.155090,720.373108 
	C561.157471,723.462036 558.457458,723.185974 556.336731,723.370605 
	C555.112854,723.477173 554.064575,723.781067 553.696716,725.159912 
	C554.796326,727.533203 556.895813,726.474243 558.532715,726.638672 
	C560.462097,726.832581 562.302917,726.863525 562.170654,729.978149 
z"/>
<path fill="#000000" opacity="1.000000" stroke="none" 
	d="
M814.479614,393.852844 
	C812.427185,392.974548 810.736572,392.280396 809.059937,391.554016 
	C807.434631,390.849915 806.138977,389.796051 806.291565,387.844482 
	C806.453857,385.767975 808.074463,385.096344 809.806519,384.990356 
	C816.237549,384.596771 822.662415,383.648743 829.122925,384.595398 
	C831.331299,384.918976 833.657471,385.221405 833.503967,388.221924 
	C833.364807,390.943115 832.879944,393.586365 829.562073,394.373840 
	C824.620972,395.546448 819.713196,395.790009 814.479614,393.852844 
z"/>
<path fill="#000000" opacity="1.000000" stroke="none" 
	d="
M742.265686,281.028503 
	C742.126343,284.372559 740.450684,285.980255 737.694336,286.500031 
	C728.905090,288.157288 720.791504,285.851685 712.329224,282.497101 
	C714.911682,279.024536 718.009644,278.546417 721.375916,278.561096 
	C727.289795,278.586884 734.272949,280.896515 735.490601,271.391174 
	C740.413574,273.240997 741.134460,277.070221 742.265686,281.028503 
z"/>
<path fill="#000000" opacity="1.000000" stroke="none" 
	d="
M653.434998,499.537201 
	C657.708252,499.663116 661.523987,499.687195 665.330017,499.891479 
	C666.980164,499.980103 668.781128,500.309814 669.355103,502.225311 
	C670.017822,504.436920 668.245483,505.506470 666.875061,506.656433 
	C665.707886,507.635742 664.315125,508.209625 662.764771,508.216339 
	C656.628845,508.242859 650.490601,508.340790 644.358032,508.202179 
	C642.258484,508.154724 639.425171,507.778748 639.735046,504.958191 
	C640.023804,502.329376 640.790466,499.063446 644.546326,498.992218 
	C647.351135,498.939026 650.164124,499.320557 653.434998,499.537201 
z"/>
<path fill="#000000" opacity="1.000000" stroke="none" 
	d="
M763.422485,721.871704 
	C762.617249,723.171631 761.604187,723.358826 760.617676,723.271667 
	C756.418335,722.900879 754.957642,724.909241 755.270630,728.907654 
	C755.402527,730.592346 755.761597,732.892273 752.906616,732.893738 
	C750.225342,732.895203 749.724976,731.051208 749.732849,728.825256 
	C749.755798,722.365417 749.741028,715.905518 749.741028,709.060242 
	C754.822205,708.139832 759.762817,709.350647 764.498413,707.603882 
	C765.748596,711.828552 764.667969,713.437744 761.039368,713.430115 
	C758.775330,713.425293 756.368225,713.381287 754.834412,715.735596 
	C756.397827,719.801697 763.705200,715.080444 763.422485,721.871704 
z"/>
<path fill="#000000" opacity="1.000000" stroke="none" 
	d="
M857.620178,419.109222 
	C856.756836,413.676361 858.760864,409.003296 862.407043,408.030670 
	C866.544434,406.927063 869.495117,409.093781 871.632507,412.339874 
	C874.060486,416.027130 873.188538,420.204529 869.603699,423.446838 
	C865.660950,427.012909 861.307739,425.556610 857.620178,419.109222 
z"/>
<path fill="#000000" opacity="1.000000" stroke="none" 
	d="
M271.140137,306.988525 
	C273.485718,311.381500 271.626221,318.509644 267.685486,320.679230 
	C265.453186,321.908234 263.162354,321.429047 261.166626,319.867859 
	C258.015106,317.402527 256.717346,311.793335 258.392975,308.057281 
	C261.049347,302.134521 265.410431,301.655182 271.140137,306.988525 
z"/>
<path fill="#000000" opacity="1.000000" stroke="none" 
	d="
M846.196411,311.998047 
	C841.945618,317.152893 838.400452,318.095093 834.638245,315.227875 
	C830.922852,312.396362 829.749146,308.526154 831.117126,304.174194 
	C832.142029,300.913330 835.119446,300.571594 838.076172,300.728027 
	C842.631287,300.968994 845.366638,303.438599 846.548828,307.765503 
	C846.909851,309.086884 846.908142,310.381531 846.196411,311.998047 
z"/>
<path fill="#000000" opacity="1.000000" stroke="none" 
	d="
M651.282593,714.527832 
	C648.582947,715.450867 648.996338,717.521851 648.956482,719.260376 
	C648.858398,723.537292 648.924377,727.817932 648.924377,731.989441 
	C645.209534,732.954529 643.785156,731.866089 643.652710,728.804443 
	C643.530518,725.978760 643.163757,723.163818 643.037842,720.338196 
	C642.909668,717.462158 643.134521,714.568298 639.102783,714.031067 
	C637.634338,713.835388 637.040710,712.382141 637.214722,710.929871 
	C637.448364,708.979492 638.975342,708.727051 640.555603,708.721924 
	C645.193237,708.706787 649.830933,708.716553 654.783630,708.716553 
	C655.612000,711.585510 656.816223,714.550232 651.282593,714.527832 
z"/>
<path fill="#000000" opacity="1.000000" stroke="none" 
	d="
M734.688171,721.512207 
	C734.864746,717.551880 734.711487,714.438049 729.906311,714.066956 
	C727.899048,713.911987 727.671265,711.832153 727.953491,710.076050 
	C728.261475,708.159790 729.743164,707.867432 731.346741,707.939880 
	C735.322449,708.119324 739.271484,709.089294 743.283203,708.177673 
	C745.036316,707.779358 745.676819,709.068359 745.928894,710.451843 
	C746.280090,712.379272 746.052063,714.646362 743.876648,714.902649 
	C738.877991,715.491516 739.473145,718.916138 739.501526,722.260010 
	C739.521301,724.583740 739.471375,726.910522 739.365173,729.231995 
	C739.297913,730.702637 739.400757,732.496216 737.219299,732.485229 
	C734.886292,732.473511 734.756409,730.663818 734.726929,728.934875 
	C734.687256,726.603027 734.700012,724.270264 734.688171,721.512207 
z"/>
<path fill="#000000" opacity="1.000000" stroke="none" 
	d="
M341.205017,730.033142 
	C340.926147,726.829102 340.666779,724.010071 340.711823,721.195801 
	C340.762085,718.051941 340.905396,715.131531 336.576263,714.749939 
	C334.955566,714.607117 334.621338,713.135132 334.861389,711.675415 
	C335.169373,709.802368 336.195862,708.704346 338.210327,708.710022 
	C342.665833,708.722534 347.121399,708.713867 351.711365,708.713867 
	C352.666473,710.559692 352.553619,712.494385 352.643555,715.004761 
	C345.729767,714.045654 345.855011,718.466187 346.070038,723.029907 
	C346.163727,725.018494 346.079681,727.017822 346.018372,729.010498 
	C345.983887,730.133423 346.289215,731.512939 344.974823,732.093750 
	C343.257965,732.852295 342.157288,731.864624 341.205017,730.033142 
z"/>
<path fill="#000000" opacity="1.000000" stroke="none" 
	d="
M377.854431,723.925781 
	C377.867798,719.615906 377.855377,715.792114 377.900055,711.969116 
	C377.922211,710.072327 378.621735,708.737915 380.844147,708.854675 
	C382.856628,708.960510 383.251343,710.340454 383.279663,711.951538 
	C383.329376,714.776794 383.560089,717.627502 383.278137,720.423462 
	C382.821930,724.947144 384.875977,726.441101 389.071198,726.041687 
	C390.685028,725.888062 392.325745,726.016724 393.861420,726.016724 
	C394.965942,728.146362 394.321808,729.837646 393.683685,731.674255 
	C389.435913,732.716187 385.074066,732.470215 380.837677,731.985901 
	C375.772888,731.406738 378.463196,727.117065 377.854431,723.925781 
z"/>
<path fill="#000000" opacity="1.000000" stroke="none" 
	d="
M171.908997,717.756104 
	C175.859055,718.104797 179.328705,718.407227 182.785233,718.819519 
	C184.041702,718.969421 185.002625,719.690735 184.870575,721.127869 
	C184.760025,722.330872 183.741043,722.718567 182.744568,722.843506 
	C181.431625,723.008240 180.076141,723.172241 178.773468,723.026978 
	C168.166351,721.844055 157.523056,722.505493 146.897369,722.319885 
	C146.232803,722.308289 145.567444,722.309998 144.903915,722.276611 
	C143.215485,722.191589 141.894150,721.544373 142.013992,719.634583 
	C142.127426,717.826965 143.680725,717.765564 145.001114,717.755127 
	C151.149368,717.706665 157.298141,717.716736 163.446716,717.716125 
	C166.105621,717.715820 168.764511,717.740234 171.908997,717.756104 
z"/>
<path fill="#000000" opacity="1.000000" stroke="none" 
	d="
M840.869812,465.244873 
	C840.842773,466.259216 840.853943,466.952118 840.611755,467.540802 
	C838.517395,472.630981 835.211853,475.013611 831.984802,473.820435 
	C828.041687,472.362427 825.719421,467.325928 826.825806,462.631439 
	C827.965027,457.797729 833.344055,456.222351 837.394897,459.530640 
	C839.119446,460.939056 840.171326,462.767914 840.869812,465.244873 
z"/>
<path fill="#000000" opacity="1.000000" stroke="none" 
	d="
M696.724243,724.114990 
	C698.369995,726.376526 700.513916,725.759277 702.430725,725.996582 
	C704.065186,726.198914 706.040222,726.155212 706.101807,728.438416 
	C706.164734,730.771790 704.806335,732.178894 702.421631,732.233032 
	C698.971252,732.311340 695.517761,732.253052 690.981140,732.253052 
	C690.981140,725.437378 690.893311,718.863953 691.038147,712.295654 
	C691.078308,710.473633 690.886902,707.822632 693.902832,708.065613 
	C696.377502,708.265015 696.229736,710.467041 696.280457,712.292786 
	C696.386475,716.103821 696.463867,719.915588 696.724243,724.114990 
z"/>
<path fill="#000000" opacity="1.000000" stroke="none" 
	d="
M704.041138,536.761841 
	C704.807312,532.138733 705.815674,527.974060 707.364075,523.950134 
	C707.943542,522.444275 708.105408,520.513916 710.295532,520.479248 
	C712.375183,520.446289 713.631836,521.762756 714.378540,523.560608 
	C716.086060,527.671814 717.762634,531.796204 719.406799,535.933105 
	C719.856140,537.063721 720.015259,538.278687 718.587891,538.871643 
	C717.248779,539.427979 716.378052,538.652954 715.787537,537.542603 
	C715.400940,536.815552 715.149292,536.018066 714.803040,535.267883 
	C713.150085,531.686462 711.186157,531.858093 709.014221,534.809448 
	C708.231873,535.872498 707.596252,537.081909 706.662354,537.985413 
	C705.471741,539.137390 704.290894,539.293152 704.041138,536.761841 
z"/>
<path fill="#000000" opacity="1.000000" stroke="none" 
	d="
M197.945282,430.754517 
	C196.333771,428.647430 195.839066,426.680420 196.356903,424.379181 
	C197.073959,421.192657 198.644394,418.745178 201.964203,418.093414 
	C204.826843,417.531433 206.716507,419.354889 207.996048,421.624329 
	C209.548691,424.378143 210.002121,427.190613 207.829208,430.006073 
	C203.838196,435.177246 202.668716,435.343445 197.945282,430.754517 
z"/>
<path fill="#000000" opacity="1.000000" stroke="none" 
	d="
M171.666306,409.213348 
	C176.423645,408.964935 180.157928,411.847626 180.810898,415.820343 
	C181.282120,418.687347 177.569275,423.326569 174.152176,424.077332 
	C171.957367,424.559540 170.185379,423.670685 169.017258,421.910919 
	C167.319885,419.353851 166.308289,416.487183 167.874176,413.550873 
	C168.703110,411.996521 170.154266,410.773987 171.666306,409.213348 
z"/>
<path fill="#000000" opacity="1.000000" stroke="none" 
	d="
M841.606689,408.818176 
	C840.464417,412.300568 838.162659,413.886627 834.986633,414.439606 
	C831.887634,414.979156 828.734558,415.023682 827.263123,411.776428 
	C825.835144,408.625031 826.741943,405.613525 829.660278,403.460999 
	C832.567261,401.316833 835.580811,400.539307 838.729919,402.971100 
	C840.514893,404.349457 841.595703,406.135956 841.606689,408.818176 
z"/>
<path fill="#000000" opacity="1.000000" stroke="none" 
	d="
M692.887878,519.989685 
	C695.050720,520.160034 697.036316,519.312378 698.397400,521.283142 
	C697.656616,525.140381 693.391541,523.005310 691.638367,525.105530 
	C691.673279,528.949097 695.591919,526.611938 696.852112,528.608093 
	C695.860046,530.661621 690.770813,529.771790 692.646118,533.861572 
	C693.833435,536.451050 697.965698,534.555420 699.285461,537.864014 
	C695.253113,540.593750 691.281921,537.795837 687.175110,538.248779 
	C686.239624,533.029602 686.649231,528.050049 686.788757,523.108337 
	C686.898315,519.225586 690.162048,520.327454 692.887878,519.989685 
z"/>
<path fill="#000000" opacity="1.000000" stroke="none" 
	d="
M257.164886,395.229340 
	C255.438751,394.942200 254.065872,394.853180 252.860779,394.356812 
	C250.134033,393.233765 247.518433,391.518036 247.910812,388.235626 
	C248.346649,384.589569 251.768219,385.316711 254.282776,384.972931 
	C255.266052,384.838501 256.287048,384.807037 257.273834,384.903168 
	C260.393433,385.207001 264.564117,384.054962 264.680298,389.207581 
	C264.785461,393.870148 262.090424,395.733765 257.164886,395.229340 
z"/>
<path fill="#000000" opacity="1.000000" stroke="none" 
	d="
M887.421631,718.909241 
	C889.386475,722.303955 887.144470,722.321716 885.007935,722.332764 
	C875.705383,722.380859 866.402588,722.396179 857.099915,722.436584 
	C855.360352,722.444092 853.418518,722.409424 853.489990,720.115845 
	C853.560242,717.859436 855.686279,717.880554 857.284790,717.846863 
	C867.245728,717.636658 877.204224,717.656799 887.421631,718.909241 
z"/>
<path fill="#000000" opacity="1.000000" stroke="none" 
	d="
M746.572266,520.331482 
	C749.122253,520.242371 751.568054,519.137085 753.119202,521.793213 
	C751.491882,525.020691 746.541382,522.406067 745.509277,526.203308 
	C746.663452,529.023499 750.266907,526.821411 751.332092,529.428467 
	C750.966675,531.229858 749.459717,530.961182 748.202393,531.124573 
	C746.993591,531.281555 745.793640,531.529053 745.784729,533.055847 
	C745.776184,534.518738 747.053040,534.822510 748.115173,535.265808 
	C750.037231,536.068054 752.847046,535.046570 753.997314,537.891663 
	C746.233521,540.832520 741.806763,538.209229 741.717590,530.874512 
	C741.695374,529.051392 741.912842,527.193787 741.635132,525.411987 
	C741.060486,521.724915 742.518677,520.130676 746.572266,520.331482 
z"/>
<path fill="#000000" opacity="1.000000" stroke="none" 
	d="
M827.049194,303.070648 
	C828.860046,306.176422 827.249756,308.175873 825.000000,308.877899 
	C821.419128,309.995209 817.340393,310.964691 814.290161,307.736572 
	C812.388733,305.724243 813.165405,302.928314 814.340576,300.725555 
	C815.661011,298.250488 818.170593,298.391083 820.500793,299.020264 
	C822.923401,299.674469 825.104187,300.860992 827.049194,303.070648 
z"/>
<path fill="#000000" opacity="1.000000" stroke="none" 
	d="
M733.948730,524.055847 
	C731.529907,523.100037 729.021973,522.140198 727.924255,524.660828 
	C726.844421,527.140381 729.841187,527.604248 731.273438,528.762939 
	C733.063538,530.211121 736.716736,529.674561 736.555359,533.111267 
	C736.439697,535.572632 734.760803,537.325806 732.328796,538.121582 
	C728.571350,539.351074 726.379211,538.786560 723.384827,535.698303 
	C725.891113,533.698792 729.308044,535.895386 731.914795,533.867981 
	C731.126343,531.045654 728.296997,531.225159 726.558899,529.998779 
	C724.896973,528.826172 723.038208,527.770630 723.615356,525.348572 
	C724.352356,522.255798 726.681885,520.717285 729.615906,520.107727 
	C731.965881,519.619507 734.443787,519.783142 735.989868,521.761414 
	C737.178589,523.282532 736.034485,524.139587 733.948730,524.055847 
z"/>
<path fill="#000000" opacity="1.000000" stroke="none" 
	d="
M331.310486,713.158203 
	C331.231049,718.931091 331.184418,724.222107 331.076691,729.511902 
	C331.042328,731.199768 330.906555,733.002197 328.607117,733.090149 
	C326.058228,733.187683 325.726257,731.362183 325.714722,729.406555 
	C325.681549,723.784485 325.650024,718.162109 325.667572,712.540039 
	C325.674286,710.389221 325.473969,707.857666 328.649292,707.888123 
	C332.042664,707.920654 331.092865,710.698792 331.310486,713.158203 
z"/>
<path fill="#000000" opacity="1.000000" stroke="none" 
	d="
M194.080841,412.187195 
	C190.186722,414.086029 187.970367,412.160614 186.316620,409.422119 
	C184.905838,407.085938 184.992111,404.589355 187.062973,402.577209 
	C189.271133,400.431732 191.965134,400.627808 194.495804,401.772400 
	C198.338562,403.510437 198.256104,408.026001 194.080841,412.187195 
z"/>
<path fill="#000000" opacity="1.000000" stroke="none" 
	d="
M239.631134,393.183838 
	C238.893814,393.261536 238.565964,393.283691 238.237762,393.298584 
	C235.585587,393.418884 233.174011,392.828094 232.234924,390.062103 
	C231.433899,387.702698 233.197128,386.370850 234.994537,385.458740 
	C237.634720,384.118958 240.184448,384.558533 242.164444,386.762726 
	C245.070740,389.998077 243.822800,392.028839 239.631134,393.183838 
z"/>
</svg>